/* XPM */
static char * bitcoin32_xpm[] = {
"32 32 521 2",
"  	c None",
". 	c #FFFFFF",
"+ 	c #FDFFFE",
"@ 	c #FFFEFB",
"# 	c #FEFFFD",
"$ 	c #FEFFFF",
"% 	c #FDFDFD",
"& 	c #CACAC8",
"* 	c #827D7C",
"= 	c #807D7B",
"- 	c #CCCBC8",
"; 	c #FEFEFD",
"> 	c #FEFEFE",
", 	c #A4A3A9",
"' 	c #200100",
") 	c #572F00",
"! 	c #815E00",
"~ 	c #855C00",
"{ 	c #492500",
"] 	c #200F00",
"^ 	c #ACAAAA",
"/ 	c #FDFDFC",
"( 	c #433C2A",
"_ 	c #563500",
": 	c #FFFFA2",
"< 	c #FFFFED",
"[ 	c #FFFFF8",
"} 	c #FFFFF6",
"| 	c #FFFFB9",
"1 	c #D3AA33",
"2 	c #482700",
"3 	c #564A2E",
"4 	c #FDFDF9",
"5 	c #FDFFFF",
"6 	c #3E3226",
"7 	c #5E3A00",
"8 	c #FFDD60",
"9 	c #FFFFCB",
"0 	c #FBFFFF",
"a 	c #FDFEFF",
"b 	c #FBFFC7",
"c 	c #FFFC83",
"d 	c #C09534",
"e 	c #5D3F00",
"f 	c #494125",
"g 	c #FCFFF9",
"h 	c #FFFDFF",
"i 	c #FFFEFF",
"j 	c #827E76",
"k 	c #402500",
"l 	c #B1872F",
"m 	c #FFDB6A",
"n 	c #FFFF8C",
"o 	c #FFFF9A",
"p 	c #FFFFAA",
"q 	c #FFFDA3",
"r 	c #FDFDA1",
"s 	c #FFFF8E",
"t 	c #F3C157",
"u 	c #997E29",
"v 	c #4A3000",
"w 	c #888379",
"x 	c #FFFEFC",
"y 	c #FDFEFD",
"z 	c #F0F2F0",
"A 	c #120000",
"B 	c #82671E",
"C 	c #BB9740",
"D 	c #CDA247",
"E 	c #CA9F47",
"F 	c #D9AA49",
"G 	c #F5CE60",
"H 	c #FFEF79",
"I 	c #FFF981",
"J 	c #FFF07A",
"K 	c #FFD569",
"L 	c #CCA046",
"M 	c #8F6B25",
"N 	c #1E0F00",
"O 	c #F2F1F5",
"P 	c #FFFFFC",
"Q 	c #FFFFFD",
"R 	c #FEFDFC",
"S 	c #43331F",
"T 	c #5D440B",
"U 	c #93752C",
"V 	c #AA8635",
"W 	c #9B7B33",
"X 	c #8C6C2C",
"Y 	c #8E6E29",
"Z 	c #AA7C30",
"` 	c #CE9D45",
" .	c #EFB854",
"..	c #F8C861",
"+.	c #F7C55E",
"@.	c #DFB554",
"#.	c #AD8830",
"$.	c #6B5112",
"%.	c #4F4424",
"&.	c #FFFFFE",
"*.	c #E6E4DC",
"=.	c #1C0400",
"-.	c #745A1E",
";.	c #8F722C",
">.	c #8C6F2B",
",.	c #7D6122",
"'.	c #6E5621",
").	c #6C541E",
"!.	c #735E20",
"~.	c #8D6D27",
"{.	c #A58036",
"].	c #B89243",
"^.	c #C7A249",
"/.	c #CCA34B",
"(.	c #B38E39",
"_.	c #856925",
":.	c #2C1500",
"<.	c #E8E8DF",
"[.	c #6C6353",
"}.	c #503804",
"|.	c #775E22",
"1.	c #7F6726",
"2.	c #715A24",
"3.	c #664F1F",
"4.	c #5C471B",
"5.	c #5E471C",
"6.	c #604C1B",
"7.	c #6B5622",
"8.	c #7C642A",
"9.	c #8E7433",
"0.	c #A1853A",
"a.	c #AB8D3F",
"b.	c #A6883A",
"c.	c #8D7227",
"d.	c #634B0D",
"e.	c #766D53",
"f.	c #FFFEFD",
"g.	c #FDFFFC",
"h.	c #1C0D00",
"i.	c #5F4916",
"j.	c #715921",
"k.	c #6E591F",
"l.	c #5F4819",
"m.	c #524216",
"n.	c #4F3F17",
"o.	c #524119",
"p.	c #57491B",
"q.	c #604E1F",
"r.	c #6E5922",
"s.	c #7E682C",
"t.	c #907834",
"u.	c #9D823A",
"v.	c #A18438",
"w.	c #92762D",
"x.	c #745E1F",
"y.	c #2A1800",
"z.	c #D0CBBA",
"A.	c #391D00",
"B.	c #5E4E14",
"C.	c #6B5422",
"D.	c #5E491B",
"E.	c #524117",
"F.	c #4B3C16",
"G.	c #4B3C1A",
"H.	c #50421A",
"I.	c #55461D",
"J.	c #5F4E1F",
"K.	c #6C5623",
"L.	c #77632A",
"M.	c #887331",
"N.	c #987B35",
"O.	c #9F8038",
"P.	c #947831",
"Q.	c #7F6524",
"R.	c #CFCEC0",
"S.	c #8A8178",
"T.	c #482F00",
"U.	c #63461A",
"V.	c #614C18",
"W.	c #524219",
"X.	c #4B3C18",
"Y.	c #493C18",
"Z.	c #4D3E1B",
"`.	c #53431D",
" +	c #594C20",
".+	c #615121",
"++	c #6D5A24",
"@+	c #7A6529",
"#+	c #897130",
"$+	c #967935",
"%+	c #9E8138",
"&+	c #967B30",
"*+	c #856C29",
"=+	c #624B08",
"-+	c #928A78",
";+	c #60573C",
">+	c #493400",
",+	c #594211",
"'+	c #554215",
")+	c #4B3F17",
"!+	c #483C19",
"~+	c #4A3F1B",
"{+	c #50441C",
"]+	c #564A20",
"^+	c #624F22",
"/+	c #6D5927",
"(+	c #79612A",
"_+	c #866D2C",
":+	c #917731",
"<+	c #997C34",
"[+	c #9E8134",
"}+	c #997D31",
"|+	c #8C712B",
"1+	c #6D5812",
"2+	c #716440",
"3+	c #443405",
"4+	c #4E3806",
"5+	c #543E0D",
"6+	c #513D12",
"7+	c #4A3C15",
"8+	c #50431A",
"9+	c #594A1F",
"0+	c #645221",
"a+	c #705C24",
"b+	c #7C6329",
"c+	c #886D2D",
"d+	c #927430",
"e+	c #977A32",
"f+	c #9B7C34",
"g+	c #9D8137",
"h+	c #9A7C31",
"i+	c #8E742B",
"j+	c #78601B",
"k+	c #54430F",
"l+	c #FDFFFD",
"m+	c #412B00",
"n+	c #5D4109",
"o+	c #5E410D",
"p+	c #5C4512",
"q+	c #5D4A18",
"r+	c #614F1E",
"s+	c #675623",
"t+	c #725B26",
"u+	c #7B6428",
"v+	c #816A2C",
"w+	c #8B702F",
"x+	c #93742E",
"y+	c #99792F",
"z+	c #9E7D34",
"A+	c #9F8132",
"B+	c #A28333",
"C+	c #9E8233",
"D+	c #95792C",
"E+	c #83691F",
"F+	c #503B00",
"G+	c #FCFFFD",
"H+	c #FDFDFE",
"I+	c #715101",
"J+	c #926916",
"K+	c #966E1D",
"L+	c #9E7521",
"M+	c #A27E2A",
"N+	c #A98531",
"O+	c #AB8934",
"P+	c #B18D34",
"Q+	c #B69338",
"R+	c #B99536",
"S+	c #BE973A",
"T+	c #C0963B",
"U+	c #C4993D",
"V+	c #C3993B",
"W+	c #C49B3C",
"X+	c #C49C3A",
"Y+	c #C09738",
"Z+	c #B78F34",
"`+	c #AB8427",
" @	c #7B5701",
".@	c #A6780F",
"+@	c #CE9A2C",
"@@	c #D5A037",
"#@	c #DDAA3A",
"$@	c #E3B241",
"%@	c #E9B644",
"&@	c #EDBA49",
"*@	c #EFBC4B",
"=@	c #F1BF4B",
"-@	c #F2BF4B",
";@	c #F4BE4B",
">@	c #F1BE4A",
",@	c #EEBB49",
"'@	c #ECBA45",
")@	c #EAB442",
"!@	c #E3B03E",
"~@	c #DCA739",
"{@	c #CF9D31",
"]@	c #AC7710",
"^@	c #FFFFFB",
"/@	c #FEFFFE",
"(@	c #B58923",
"_@	c #D7A430",
":@	c #E4AD3B",
"<@	c #EBB840",
"[@	c #F2BC46",
"}@	c #F6C047",
"|@	c #FBC24B",
"1@	c #FCC54E",
"2@	c #FCC94F",
"3@	c #FDC851",
"4@	c #FDC951",
"5@	c #FDC84F",
"6@	c #FCC54B",
"7@	c #F9C34B",
"8@	c #F7C048",
"9@	c #F2BB44",
"0@	c #EDB641",
"a@	c #E1AC39",
"b@	c #D5A22F",
"c@	c #B78B21",
"d@	c #C39F4E",
"e@	c #D7A026",
"f@	c #E2AC3D",
"g@	c #ECB841",
"h@	c #F1BB46",
"i@	c #FAC24A",
"j@	c #FDC64F",
"k@	c #FBCA51",
"l@	c #FECA52",
"m@	c #FCC74B",
"n@	c #FAC34D",
"o@	c #F3BC46",
"p@	c #EBB540",
"q@	c #E1AB38",
"r@	c #D7A125",
"s@	c #C4A050",
"t@	c #CEBD93",
"u@	c #D59B1E",
"v@	c #E0AB3D",
"w@	c #EAB63F",
"x@	c #F1BB47",
"y@	c #F6BF47",
"z@	c #FDC44B",
"A@	c #FDC84D",
"B@	c #FAC94D",
"C@	c #FDC94E",
"D@	c #FCC94E",
"E@	c #FEC84B",
"F@	c #F9C14D",
"G@	c #F7C049",
"H@	c #E0AC37",
"I@	c #D39B1D",
"J@	c #D0BC96",
"K@	c #F6F7E2",
"L@	c #C0840B",
"M@	c #DEAE3C",
"N@	c #EBB43B",
"O@	c #F7BE46",
"P@	c #F9C44B",
"Q@	c #FBC74D",
"R@	c #FDC94F",
"S@	c #FCC84E",
"T@	c #FBC74E",
"U@	c #FBC34C",
"V@	c #F0BA45",
"W@	c #EBB23D",
"X@	c #E0AD35",
"Y@	c #BD840A",
"Z@	c #F9F8E7",
"`@	c #BB9933",
" #	c #DEA532",
".#	c #E5B23A",
"+#	c #EFB942",
"@#	c #F4BD45",
"##	c #F6C247",
"$#	c #F8C549",
"%#	c #FBC84B",
"&#	c #FBC84C",
"*#	c #F9C54A",
"=#	c #F7C247",
"-#	c #F5BF44",
";#	c #EFBA3D",
">#	c #E2B337",
",#	c #DDA635",
"'#	c #BC9838",
")#	c #FFFBFF",
"!#	c #FEFFFC",
"~#	c #EDEBE1",
"{#	c #C58701",
"]#	c #E0AF3A",
"^#	c #E8B53F",
"/#	c #F0BA43",
"(#	c #F2BE44",
"_#	c #F4BF46",
":#	c #F5C147",
"<#	c #F6C248",
"[#	c #F5C047",
"}#	c #F4C148",
"|#	c #F2BE46",
"1#	c #EFBC43",
"2#	c #ECB33C",
"3#	c #E5AD37",
"4#	c #BD8802",
"5#	c #F1ECDA",
"6#	c #FFFDFE",
"7#	c #FCFCFB",
"8#	c #CBAF6B",
"9#	c #D4981A",
"0#	c #DEAD34",
"a#	c #DFAE3B",
"b#	c #E4B13B",
"c#	c #E4B33F",
"d#	c #E5B341",
"e#	c #E7B43F",
"f#	c #E8B340",
"g#	c #E7B33F",
"h#	c #E3B43F",
"i#	c #E7B03E",
"j#	c #E6AE38",
"k#	c #DDAD35",
"l#	c #CF9B1F",
"m#	c #CBB26C",
"n#	c #FEFFFB",
"o#	c #FCFEFF",
"p#	c #BA984D",
"q#	c #C78F18",
"r#	c #C99832",
"s#	c #C5992D",
"t#	c #C4962E",
"u#	c #C59731",
"v#	c #C59832",
"w#	c #C69930",
"x#	c #C59A32",
"y#	c #C99931",
"z#	c #C79A37",
"A#	c #CA9E29",
"B#	c #C69218",
"C#	c #BF9A4C",
"D#	c #FAFAF6",
"E#	c #E3DEE1",
"F#	c #C5CAD3",
"G#	c #988451",
"H#	c #A2790F",
"I#	c #A77F21",
"J#	c #A67F24",
"K#	c #A78027",
"L#	c #A38024",
"M#	c #A47F26",
"N#	c #A48025",
"O#	c #A38422",
"P#	c #AB8118",
"Q#	c #A27814",
"R#	c #A58D5B",
"S#	c #D7E0E0",
"T#	c #EFEDEE",
"U#	c #F3F6F6",
"V#	c #D6D6D8",
"W#	c #ACACAB",
"X#	c #84878F",
"Y#	c #6B6A66",
"Z#	c #7B6329",
"`#	c #8C6A18",
" $	c #976E12",
".$	c #997015",
"+$	c #987013",
"@$	c #956E16",
"#$	c #8B6A15",
"$$	c #7D6330",
"%$	c #77746F",
"&$	c #919AA0",
"*$	c #C1BAC4",
"=$	c #E4E9E4",
"-$	c #FDFCFB",
";$	c #F8F8F8",
">$	c #DEDEDE",
",$	c #B8B8B8",
"'$	c #929292",
")$	c #797979",
"!$	c #666B75",
"~$	c #5E5E65",
"{$	c #5E5D59",
"]$	c #605B54",
"^$	c #605D54",
"/$	c #5F5D5A",
"($	c #636369",
"_$	c #6B7079",
":$	c #848385",
"<$	c #A4A2A1",
"[$	c #CACBCA",
"}$	c #EBEAEB",
"|$	c #F0F0F0",
"1$	c #DBDBDB",
"2$	c #BFBFC0",
"3$	c #A9AAAD",
"4$	c #9C9A97",
"5$	c #8E9192",
"6$	c #868C8E",
"7$	c #888888",
"8$	c #8D8D8C",
"9$	c #97909A",
"0$	c #A1A0A1",
"a$	c #B1B4B2",
"b$	c #CBCCCC",
"c$	c #E6E6E6",
"d$	c #F7F7F7",
"e$	c #EBEBED",
"f$	c #E1E1E3",
"g$	c #D9D8DB",
"h$	c #D1D2CE",
"i$	c #CECCCC",
"j$	c #CBCACB",
"k$	c #CCCCCD",
"l$	c #D0CFCF",
"m$	c #D4D7D0",
"n$	c #DCDDDD",
"o$	c #E6E6E9",
"p$	c #F1F0F2",
"q$	c #FAFAFA",
"r$	c #FCFCFC",
"s$	c #F9F9FA",
"t$	c #F9FAF9",
"u$	c #F9F9F8",
"v$	c #FBFBFB",
". . . . . . . . . . . . + @ . . . . # # # $ . . . . . . . . . . ",
". . . . . . . . . . . % . . & * = - . . % ; . . . . . . . . . . ",
". . . . . . . . . . > . , ' ) ! ~ { ] ^ . > . . . . . . . . . . ",
". . . . . . . . . / . ( _ : < [ } | 1 2 3 . 4 . 5 . . . . . . . ",
". . . . . . . . . . 6 7 8 9 0 a 5 b c d e f . g h . . . . . . . ",
". . . . . . . i . j k l m n o p q r s t u v w . x . . . . . . . ",
". . . . . . y . z A B C D E F G H I J K L M N O . . P Q . . . . ",
". . . . . . R . S T U V W X Y Z `  ...+.@.#.$.%.. % . &.. . . . ",
". . . . . . . *.=.-.;.>.,.'.).!.~.{.].^./.(._.:.<.. . . . . . . ",
". . . . . . . [.}.|.1.2.3.4.5.6.7.8.9.0.a.b.c.d.e.. f.g.. . . . ",
". . . . . . . h.i.j.k.l.m.n.o.p.q.r.s.t.u.v.w.x.y.. $ i . . . . ",
". . . . . . z.A.B.C.D.E.F.G.H.I.J.K.L.M.N.O.P.Q.v R.. h . . . . ",
". . . . &.. S.T.U.V.W.X.Y.Z.`. +.+++@+#+$+%+&+*+=+-+. h . . . . ",
". . . . Q . ;+>+,+'+)+!+~+{+]+^+/+(+_+:+<+[+}+|+1+2+. h . . . . ",
". . . . ; . 3+4+5+6+7+Z.8+9+0+a+b+c+d+e+f+g+h+i+j+k+. h . . . . ",
". . . + l+. m+n+o+p+q+r+s+t+u+v+w+x+y+z+A+B+C+D+E+F+. G+. . . . ",
". . . l+H+. I+J+K+L+M+N+O+P+Q+R+S+T+U+V+W+X+Y+Z+`+ @. y . . . . ",
". . . l+% . .@+@@@#@$@%@&@*@=@=@-@;@>@,@'@)@!@~@{@]@. ^@. . . . ",
". . . $ /@. (@_@:@<@[@}@|@1@2@3@4@5@6@7@8@9@0@a@b@c@. l+. . . . ",
". . . . Q . d@e@f@g@h@8@i@j@k@l@l@4@m@n@8@o@p@q@r@s@. $ . . . . ",
". . . &.. . t@u@v@w@x@y@z@A@B@C@C@D@E@F@G@9@0@H@I@J@. Q . . . . ",
". . . P . . K@L@M@N@9@O@P@Q@5@2@R@S@T@U@y@V@W@X@Y@Z@. # . . . . ",
". . . . . . . `@ #.#+#@###$#%#&#&#%#*#=#-#;#>#,#'#. )#!#. . . . ",
". . . . . . . ~#{#]#^#/#(#_#:#<#<#[#}#|#1#2#3#4#5#$ 6## . . . . ",
". . . . . . 7#. 8#9#0#a#b#c#d#e#f#g#h#i#j#k#l#m#. > n#$ . . . . ",
". . . . . . x o#$ p#q#r#s#t#u#v#w#x#y#z#A#B#C#. 5 . . . . . . . ",
". . . . . . $ D#E#F#G#H#I#J#K#L#M#N#O#P#Q#R#S#T#$ . . . . . . . ",
". . . . . . &.U#V#W#X#Y#Z#`# $.$+$@$#$$$%$&$*$=$-$. . . . . . . ",
". . . . . . . ;$>$,$'$)$!$~${$]$^$/$($_$:$<$[$}$. . . . . . . . ",
". . . . . . > > |$1$2$3$4$5$6$7$7$8$9$0$a$b$c$;$. . . . . . . . ",
". . . . . . . . > d$e$f$g$h$i$j$k$l$m$n$o$p$q$. . . . . . . . . ",
". . . . . . . . . . . % r$q$s$t$u$q$v$r$&.. . . . . . . . . . . "};
