/* XPM */
static char * bitcoin16_xpm[] = {
"16 16 140 2",
"  	c None",
". 	c #FFFFFF",
"+ 	c #D0D1D5",
"@ 	c #D0D2D7",
"# 	c #DBDEE2",
"$ 	c #594523",
"% 	c #AF976A",
"& 	c #AC9559",
"* 	c #482B00",
"= 	c #E4E5E7",
"- 	c #FEFFFF",
"; 	c #F6FAFF",
"> 	c #2B0500",
", 	c #FFFF9E",
"' 	c #FFFFF8",
") 	c #FFFFE2",
"! 	c #FFEE6C",
"~ 	c #280E00",
"{ 	c #F7FAFE",
"] 	c #423426",
"^ 	c #AE8B30",
"/ 	c #AE8436",
"( 	c #C18F2F",
"_ 	c #FEDC64",
": 	c #FFE774",
"< 	c #C69839",
"[ 	c #4B402A",
"} 	c #FFFFFD",
"| 	c #E3E3E1",
"1 	c #3C1E00",
"2 	c #8C722D",
"3 	c #644C1C",
"4 	c #5A4617",
"5 	c #7C5F23",
"6 	c #AA893D",
"7 	c #C19D46",
"8 	c #4C2F00",
"9 	c #E4E5E1",
"0 	c #7B6D63",
"a 	c #665013",
"b 	c #5E4919",
"c 	c #473915",
"d 	c #4F4119",
"e 	c #604D1E",
"f 	c #7E6A2D",
"g 	c #A1833A",
"h 	c #84691F",
"i 	c #7F7363",
"j 	c #483712",
"k 	c #5D4412",
"l 	c #473B18",
"m 	c #473C1A",
"n 	c #55481F",
"o 	c #695725",
"p 	c #866E2D",
"q 	c #9E8037",
"r 	c #93772C",
"s 	c #5D4D18",
"t 	c #271000",
"u 	c #4D370B",
"v 	c #463A16",
"w 	c #55471E",
"x 	c #6B5823",
"y 	c #82672B",
"z 	c #93742F",
"A 	c #997D34",
"B 	c #957B30",
"C 	c #452F00",
"D 	c #FDFFFD",
"E 	c #936100",
"F 	c #C1912E",
"G 	c #CEA23B",
"H 	c #D6A941",
"I 	c #DBAF42",
"J 	c #DEAF44",
"K 	c #DEAE44",
"L 	c #DBAD40",
"M 	c #D5A53C",
"N 	c #9C6800",
"O 	c #C28E13",
"P 	c #EFB941",
"Q 	c #FAC349",
"R 	c #FFC74F",
"S 	c #FFCE53",
"T 	c #FFC74C",
"U 	c #F9C148",
"V 	c #EBB33D",
"W 	c #C28D12",
"X 	c #FFFFFE",
"Y 	c #CEAA55",
"Z 	c #E5B038",
"` 	c #F6BD46",
" .	c #FDC74D",
"..	c #FDC94F",
"+.	c #FDCA4F",
"@.	c #FDC54D",
"#.	c #F5BE48",
"$.	c #E8AF35",
"%.	c #CEA958",
"&.	c #E8E6D4",
"*.	c #D59407",
"=.	c #F3BD47",
"-.	c #F8C548",
";.	c #FCC84C",
">.	c #FCC74B",
",.	c #F8C549",
"'.	c #F5BE44",
").	c #D19507",
"!.	c #EAE6D4",
"~.	c #D2B26A",
"{.	c #D89F1D",
"].	c #D8A836",
"^.	c #D7A83A",
"/.	c #DAA839",
"(.	c #DAA83C",
"_.	c #D9A018",
":.	c #D0B26A",
"<.	c #FEFFFD",
"[.	c #C9CEE1",
"}.	c #756A48",
"|.	c #91690D",
"1.	c #9E720E",
"2.	c #9C720F",
"3.	c #8F6B08",
"4.	c #807355",
"5.	c #DEE6F5",
"6.	c #D8D8D7",
"7.	c #919399",
"8.	c #676E7E",
"9.	c #5E636B",
"0.	c #616469",
"a.	c #6E7186",
"b.	c #9FA2A5",
"c.	c #E7E7E7",
"d.	c #FCFCFD",
"e.	c #F4F4F4",
"f.	c #F0EFF0",
"g.	c #F1F1F1",
"h.	c #F6F7F4",
"i.	c #FFFEFF",
". . . . . . . + @ . . . . . . . ",
". . . . . # $ % & * = . - . . . ",
". . . . ; > , ' ) ! ~ { . . . . ",
". . . . ] ^ / ( _ : < [ . } . . ",
". . . | 1 2 3 4 5 6 7 8 9 . . . ",
". . . 0 a b c d e f g h i . . . ",
". . . j k l m n o p q r s . . . ",
". - . t u v w x y z A B C . . . ",
". D . E F G H I J K L M N . . . ",
". . . O P Q R S S T U V W . . . ",
". X . Y Z `  ...+.@.#.$.%.. . . ",
". . . &.*.=.-.;.>.,.'.).!.. . . ",
". . . . ~.{.].^./.(._.:.. <.. . ",
". . . X [.}.|.1.2.3.4.5.. . . . ",
". . . . 6.7.8.9.0.a.b.c.. . . . ",
". . . . . d.e.f.g.h.i.. . . . . "};
